<?xml version="1.0" standalone="no"?>
<!DOCTYPE svg PUBLIC "-//W3C//DTD SVG 20010904//EN"
 "http://www.w3.org/TR/2001/REC-SVG-20010904/DTD/svg10.dtd">
<svg version="1.0" xmlns="http://www.w3.org/2000/svg"
 width="1024.000000pt" height="1024.000000pt" viewBox="0 0 1024.000000 1024.000000"
 preserveAspectRatio="xMidYMid meet">

<g transform="translate(0.000000,1024.000000) scale(0.100000,-0.100000)"
fill="#000000" stroke="none">
<path d="M8214 7997 c-12 -12 -52 -60 -90 -107 -38 -47 -123 -151 -189 -231
-123 -150 -201 -247 -480 -594 -89 -110 -253 -315 -366 -455 -113 -140 -232
-291 -264 -335 -33 -44 -94 -123 -136 -175 -73 -92 -275 -367 -352 -480 -20
-30 -46 -66 -56 -80 l-19 -24 -59 38 c-197 127 -486 224 -816 273 -145 22
-624 25 -767 5 -143 -21 -283 -50 -400 -84 -108 -31 -288 -103 -350 -140 -19
-12 -61 -36 -93 -54 l-58 -33 -35 39 c-20 21 -85 108 -147 192 -129 177 -291
384 -457 583 -65 77 -160 192 -211 256 -313 389 -432 535 -509 624 -48 55
-108 129 -135 164 -27 35 -103 130 -169 211 -67 81 -168 207 -226 281 l-105
133 -6 -44 c-6 -47 5 -665 16 -850 26 -452 74 -1011 111 -1290 97 -738 248
-1090 646 -1503 l133 -139 -3 -152 -3 -153 -87 -7 c-48 -3 -237 -9 -420 -13
-183 -3 -329 -10 -325 -14 18 -16 503 -130 755 -176 l98 -18 0 -37 c0 -20 2
-43 5 -50 8 -20 -100 -52 -450 -133 -154 -36 -354 -83 -445 -105 -91 -21 -180
-42 -198 -45 -18 -4 -31 -9 -29 -11 5 -5 254 25 477 58 261 38 386 23 726 -86
60 -19 126 -38 147 -41 20 -4 37 -9 37 -12 0 -2 -44 -57 -98 -121 -299 -357
-380 -458 -371 -466 2 -2 94 84 204 191 224 219 271 258 291 242 7 -6 64 -9
146 -8 109 1 157 -4 263 -25 744 -151 1176 -195 1805 -183 458 9 789 43 1230
128 118 22 485 101 489 104 2 2 35 -12 73 -31 50 -25 91 -38 144 -43 86 -10
66 4 329 -220 105 -88 194 -161 200 -161 5 0 -11 21 -36 48 -223 234 -509 550
-509 562 0 3 21 11 48 17 26 6 126 30 222 53 161 39 188 43 340 47 149 4 186
2 375 -27 398 -61 454 -64 260 -15 -71 18 -173 44 -225 58 -52 14 -178 44
-280 67 -236 54 -501 118 -505 122 -2 2 2 27 8 56 9 42 15 52 31 52 12 0 75
12 141 26 66 14 209 41 317 59 188 33 383 77 395 89 4 3 -44 6 -106 6 -112 0
-318 11 -604 34 l-149 11 -1 146 -1 146 98 93 c375 359 560 713 651 1245 22
129 57 416 94 780 12 114 46 641 61 940 11 235 13 815 3 814 -5 0 -17 -10 -29
-22z m-4963 -3215 c111 -86 321 -200 709 -384 346 -164 372 -176 474 -218 50
-20 91 -41 93 -47 4 -11 -73 -41 -187 -72 -260 -71 -525 -150 -719 -215 -124
-41 -228 -73 -232 -70 -10 6 -43 94 -86 229 -38 120 -76 330 -93 507 -11 112
-5 288 10 288 4 0 18 -8 31 -18z m3515 -192 c-8 -236 -48 -420 -153 -706 -29
-81 -50 -124 -58 -121 -77 30 -710 233 -879 282 -122 35 -239 70 -261 78 l-40
14 30 15 c17 8 48 21 70 28 145 46 622 250 890 379 202 98 312 159 358 201 32
28 32 28 41 7 4 -12 6 -92 2 -177z m-1639 -840 l394 0 -101 -150 c-120 -177
-210 -296 -311 -406 -41 -44 -79 -89 -86 -100 -10 -18 -15 -15 -68 36 -55 53
-102 110 -223 270 -81 107 -212 319 -212 343 0 19 4 20 107 14 58 -4 283 -7
500 -7z"/>
</g>
</svg>
